# xmcd
#
# Track frame offsets: 
#        150
#        7348
#        28428
#        50522
#        71039
#        89237
#        114890
#        136971
#        176200
#        201779
#        222156
#
# Disc length: 3275 seconds
#
# Revision: 0
# Processed by: cddbd v1.5.2PL0 Copyright (c) Steve Scherf et al.
# Submitted via: ExactAudioCopyFreeDBPlugin 1.0
#
DISCID=ad0cc90b
DTITLE=Flag - Unchained
DYEAR=2014
DGENRE=Blues
TTITLE0=The Usual Illusion
TTITLE1=Come Tomorrow
TTITLE2=Tractor
TTITLE3=Blind Man
TTITLE4=Play It Cool
TTITLE5=Unchained
TTITLE6=Big Red Bag
TTITLE7=Never Walk Away
TTITLE8=Come Together
TTITLE9=End Of A Curse
TTITLE10=Music First
EXTD=
EXTT0=
EXTT1=
EXTT2=
EXTT3=
EXTT4=
EXTT5=
EXTT6=
EXTT7=
EXTT8=
EXTT9=
EXTT10=
PLAYORDER=
